<svg width="268" height="52" viewBox="0 0 268 52" fill="none" xmlns="http://www.w3.org/2000/svg">
<path d="M21.9989 2.6665H50.1077L29.4421 33.297H1.33331L21.9989 2.6665Z" fill="white"/>
<path d="M23.2299 36.1362L15.2256 48.0002H44.6677L65.3333 17.3696H43.6032L30.9419 36.1362H23.2299Z" fill="#ABA9FF"/>
<path d="M82.82 37V16H86.72V33.7H97.7V37H82.82ZM107.473 37.21C105.833 37.21 104.373 36.86 103.093 36.16C101.813 35.44 100.803 34.46 100.063 33.22C99.3225 31.98 98.9525 30.57 98.9525 28.99C98.9525 27.39 99.3225 25.98 100.063 24.76C100.803 23.52 101.813 22.55 103.093 21.85C104.373 21.15 105.833 20.8 107.473 20.8C109.133 20.8 110.603 21.15 111.883 21.85C113.183 22.55 114.193 23.51 114.913 24.73C115.653 25.95 116.023 27.37 116.023 28.99C116.023 30.57 115.653 31.98 114.913 33.22C114.193 34.46 113.183 35.44 111.883 36.16C110.603 36.86 109.133 37.21 107.473 37.21ZM107.473 34C108.393 34 109.213 33.8 109.933 33.4C110.653 33 111.213 32.42 111.613 31.66C112.033 30.9 112.243 30.01 112.243 28.99C112.243 27.95 112.033 27.06 111.613 26.32C111.213 25.56 110.653 24.98 109.933 24.58C109.213 24.18 108.403 23.98 107.503 23.98C106.583 23.98 105.763 24.18 105.043 24.58C104.343 24.98 103.783 25.56 103.363 26.32C102.943 27.06 102.733 27.95 102.733 28.99C102.733 30.01 102.943 30.9 103.363 31.66C103.783 32.42 104.343 33 105.043 33.4C105.763 33.8 106.573 34 107.473 34ZM126.868 43.03C125.388 43.03 123.938 42.83 122.518 42.43C121.118 42.05 119.968 41.49 119.068 40.75L120.748 37.93C121.448 38.51 122.328 38.97 123.388 39.31C124.468 39.67 125.558 39.85 126.658 39.85C128.418 39.85 129.708 39.44 130.528 38.62C131.348 37.82 131.758 36.61 131.758 34.99V32.14L132.058 28.51L131.938 24.88V20.98H135.508V34.57C135.508 37.47 134.768 39.6 133.288 40.96C131.808 42.34 129.668 43.03 126.868 43.03ZM126.388 36.28C124.868 36.28 123.488 35.96 122.248 35.32C121.028 34.66 120.058 33.75 119.338 32.59C118.638 31.43 118.288 30.07 118.288 28.51C118.288 26.97 118.638 25.62 119.338 24.46C120.058 23.3 121.028 22.4 122.248 21.76C123.488 21.12 124.868 20.8 126.388 20.8C127.748 20.8 128.968 21.07 130.048 21.61C131.128 22.15 131.988 22.99 132.628 24.13C133.288 25.27 133.618 26.73 133.618 28.51C133.618 30.29 133.288 31.76 132.628 32.92C131.988 34.06 131.128 34.91 130.048 35.47C128.968 36.01 127.748 36.28 126.388 36.28ZM126.958 33.1C127.898 33.1 128.738 32.91 129.478 32.53C130.218 32.13 130.788 31.59 131.188 30.91C131.608 30.21 131.818 29.41 131.818 28.51C131.818 27.61 131.608 26.82 131.188 26.14C130.788 25.44 130.218 24.91 129.478 24.55C128.738 24.17 127.898 23.98 126.958 23.98C126.018 23.98 125.168 24.17 124.408 24.55C123.668 24.91 123.088 25.44 122.668 26.14C122.268 26.82 122.068 27.61 122.068 28.51C122.068 29.41 122.268 30.21 122.668 30.91C123.088 31.59 123.668 32.13 124.408 32.53C125.168 32.91 126.018 33.1 126.958 33.1ZM147.639 37.21C145.999 37.21 144.539 36.86 143.259 36.16C141.979 35.44 140.969 34.46 140.229 33.22C139.489 31.98 139.119 30.57 139.119 28.99C139.119 27.39 139.489 25.98 140.229 24.76C140.969 23.52 141.979 22.55 143.259 21.85C144.539 21.15 145.999 20.8 147.639 20.8C149.299 20.8 150.769 21.15 152.049 21.85C153.349 22.55 154.359 23.51 155.079 24.73C155.819 25.95 156.189 27.37 156.189 28.99C156.189 30.57 155.819 31.98 155.079 33.22C154.359 34.46 153.349 35.44 152.049 36.16C150.769 36.86 149.299 37.21 147.639 37.21ZM147.639 34C148.559 34 149.379 33.8 150.099 33.4C150.819 33 151.379 32.42 151.779 31.66C152.199 30.9 152.409 30.01 152.409 28.99C152.409 27.95 152.199 27.06 151.779 26.32C151.379 25.56 150.819 24.98 150.099 24.58C149.379 24.18 148.569 23.98 147.669 23.98C146.749 23.98 145.929 24.18 145.209 24.58C144.509 24.98 143.949 25.56 143.529 26.32C143.109 27.06 142.899 27.95 142.899 28.99C142.899 30.01 143.109 30.9 143.529 31.66C143.949 32.42 144.509 33 145.209 33.4C145.929 33.8 146.739 34 147.639 34ZM159.774 37V20.98H163.524V37H159.774ZM161.664 18.34C160.964 18.34 160.384 18.12 159.924 17.68C159.484 17.24 159.264 16.71 159.264 16.09C159.264 15.45 159.484 14.92 159.924 14.5C160.384 14.06 160.964 13.84 161.664 13.84C162.364 13.84 162.934 14.05 163.374 14.47C163.834 14.87 164.064 15.38 164.064 16C164.064 16.66 163.844 17.22 163.404 17.68C162.964 18.12 162.384 18.34 161.664 18.34ZM173.396 37.21C172.056 37.21 170.766 37.04 169.526 36.7C168.306 36.34 167.336 35.91 166.616 35.41L168.056 32.56C168.776 33.02 169.636 33.4 170.636 33.7C171.636 34 172.636 34.15 173.636 34.15C174.816 34.15 175.666 33.99 176.186 33.67C176.726 33.35 176.996 32.92 176.996 32.38C176.996 31.94 176.816 31.61 176.456 31.39C176.096 31.15 175.626 30.97 175.046 30.85C174.466 30.73 173.816 30.62 173.096 30.52C172.396 30.42 171.686 30.29 170.966 30.13C170.266 29.95 169.626 29.7 169.046 29.38C168.466 29.04 167.996 28.59 167.636 28.03C167.276 27.47 167.096 26.73 167.096 25.81C167.096 24.79 167.386 23.91 167.966 23.17C168.546 22.41 169.356 21.83 170.396 21.43C171.456 21.01 172.706 20.8 174.146 20.8C175.226 20.8 176.316 20.92 177.416 21.16C178.516 21.4 179.426 21.74 180.146 22.18L178.706 25.03C177.946 24.57 177.176 24.26 176.396 24.1C175.636 23.92 174.876 23.83 174.116 23.83C172.976 23.83 172.126 24 171.566 24.34C171.026 24.68 170.756 25.11 170.756 25.63C170.756 26.11 170.936 26.47 171.296 26.71C171.656 26.95 172.126 27.14 172.706 27.28C173.286 27.42 173.926 27.54 174.626 27.64C175.346 27.72 176.056 27.85 176.756 28.03C177.456 28.21 178.096 28.46 178.676 28.78C179.276 29.08 179.756 29.51 180.116 30.07C180.476 30.63 180.656 31.36 180.656 32.26C180.656 33.26 180.356 34.13 179.756 34.87C179.176 35.61 178.346 36.19 177.266 36.61C176.186 37.01 174.896 37.21 173.396 37.21ZM192.766 37.21C191.466 37.21 190.276 36.91 189.196 36.31C188.136 35.71 187.286 34.81 186.646 33.61C186.026 32.39 185.716 30.85 185.716 28.99C185.716 27.11 186.016 25.57 186.616 24.37C187.236 23.17 188.076 22.28 189.136 21.7C190.196 21.1 191.406 20.8 192.766 20.8C194.346 20.8 195.736 21.14 196.936 21.82C198.156 22.5 199.116 23.45 199.816 24.67C200.536 25.89 200.896 27.33 200.896 28.99C200.896 30.65 200.536 32.1 199.816 33.34C199.116 34.56 198.156 35.51 196.936 36.19C195.736 36.87 194.346 37.21 192.766 37.21ZM183.886 42.82V20.98H187.456V24.76L187.336 29.02L187.636 33.28V42.82H183.886ZM192.346 34C193.246 34 194.046 33.8 194.746 33.4C195.466 33 196.036 32.42 196.456 31.66C196.876 30.9 197.086 30.01 197.086 28.99C197.086 27.95 196.876 27.06 196.456 26.32C196.036 25.56 195.466 24.98 194.746 24.58C194.046 24.18 193.246 23.98 192.346 23.98C191.446 23.98 190.636 24.18 189.916 24.58C189.196 24.98 188.626 25.56 188.206 26.32C187.786 27.06 187.576 27.95 187.576 28.99C187.576 30.01 187.786 30.9 188.206 31.66C188.626 32.42 189.196 33 189.916 33.4C190.636 33.8 191.446 34 192.346 34ZM211.232 37.21C209.872 37.21 208.672 36.96 207.632 36.46C206.592 35.94 205.782 35.16 205.202 34.12C204.622 33.06 204.332 31.73 204.332 30.13V20.98H208.082V29.62C208.082 31.06 208.402 32.14 209.042 32.86C209.702 33.56 210.632 33.91 211.832 33.91C212.712 33.91 213.472 33.73 214.112 33.37C214.772 33.01 215.282 32.47 215.642 31.75C216.022 31.03 216.212 30.14 216.212 29.08V20.98H219.962V37H216.392V32.68L217.022 34C216.482 35.04 215.692 35.84 214.652 36.4C213.612 36.94 212.472 37.21 211.232 37.21ZM245.092 20.8C246.372 20.8 247.502 21.05 248.482 21.55C249.482 22.05 250.262 22.82 250.822 23.86C251.382 24.88 251.662 26.2 251.662 27.82V37H247.912V28.3C247.912 26.88 247.602 25.82 246.982 25.12C246.362 24.42 245.472 24.07 244.312 24.07C243.492 24.07 242.762 24.25 242.122 24.61C241.502 24.97 241.012 25.5 240.652 26.2C240.312 26.9 240.142 27.79 240.142 28.87V37H236.392V28.3C236.392 26.88 236.082 25.82 235.462 25.12C234.842 24.42 233.952 24.07 232.792 24.07C231.972 24.07 231.242 24.25 230.602 24.61C229.982 24.97 229.492 25.5 229.132 26.2C228.792 26.9 228.622 27.79 228.622 28.87V37H224.872V20.98H228.442V25.24L227.812 23.98C228.352 22.94 229.132 22.15 230.152 21.61C231.192 21.07 232.372 20.8 233.692 20.8C235.192 20.8 236.492 21.17 237.592 21.91C238.712 22.65 239.452 23.77 239.812 25.27L238.342 24.76C238.862 23.56 239.722 22.6 240.922 21.88C242.122 21.16 243.512 20.8 245.092 20.8Z" fill="#D9D9D9"/>
</svg>
