<svg width="264" height="59" viewBox="0 0 264 59" fill="none" xmlns="http://www.w3.org/2000/svg">
<path d="M24.7488 3H56.3712L33.1224 37.4594H1.5L24.7488 3Z" fill="#007AFF"/>
<path d="M26.1332 40.6534L17.1284 54.0004H50.2508L73.4996 19.541H49.0532L34.8092 40.6534H26.1332Z" fill="#312ECB"/>
<path d="M92.82 39.5V18.5H96.72V36.2H107.7V39.5H92.82ZM117.473 39.71C115.833 39.71 114.373 39.36 113.093 38.66C111.813 37.94 110.803 36.96 110.063 35.72C109.323 34.48 108.953 33.07 108.953 31.49C108.953 29.89 109.323 28.48 110.063 27.26C110.803 26.02 111.813 25.05 113.093 24.35C114.373 23.65 115.833 23.3 117.473 23.3C119.133 23.3 120.603 23.65 121.883 24.35C123.183 25.05 124.193 26.01 124.913 27.23C125.653 28.45 126.023 29.87 126.023 31.49C126.023 33.07 125.653 34.48 124.913 35.72C124.193 36.96 123.183 37.94 121.883 38.66C120.603 39.36 119.133 39.71 117.473 39.71ZM117.473 36.5C118.393 36.5 119.213 36.3 119.933 35.9C120.653 35.5 121.213 34.92 121.613 34.16C122.033 33.4 122.243 32.51 122.243 31.49C122.243 30.45 122.033 29.56 121.613 28.82C121.213 28.06 120.653 27.48 119.933 27.08C119.213 26.68 118.403 26.48 117.503 26.48C116.583 26.48 115.763 26.68 115.043 27.08C114.343 27.48 113.783 28.06 113.363 28.82C112.943 29.56 112.733 30.45 112.733 31.49C112.733 32.51 112.943 33.4 113.363 34.16C113.783 34.92 114.343 35.5 115.043 35.9C115.763 36.3 116.573 36.5 117.473 36.5ZM136.868 45.53C135.388 45.53 133.938 45.33 132.518 44.93C131.118 44.55 129.968 43.99 129.068 43.25L130.748 40.43C131.448 41.01 132.328 41.47 133.388 41.81C134.468 42.17 135.558 42.35 136.658 42.35C138.418 42.35 139.708 41.94 140.528 41.12C141.348 40.32 141.758 39.11 141.758 37.49V34.64L142.058 31.01L141.938 27.38V23.48H145.508V37.07C145.508 39.97 144.768 42.1 143.288 43.46C141.808 44.84 139.668 45.53 136.868 45.53ZM136.388 38.78C134.868 38.78 133.488 38.46 132.248 37.82C131.028 37.16 130.058 36.25 129.338 35.09C128.638 33.93 128.288 32.57 128.288 31.01C128.288 29.47 128.638 28.12 129.338 26.96C130.058 25.8 131.028 24.9 132.248 24.26C133.488 23.62 134.868 23.3 136.388 23.3C137.748 23.3 138.968 23.57 140.048 24.11C141.128 24.65 141.988 25.49 142.628 26.63C143.288 27.77 143.618 29.23 143.618 31.01C143.618 32.79 143.288 34.26 142.628 35.42C141.988 36.56 141.128 37.41 140.048 37.97C138.968 38.51 137.748 38.78 136.388 38.78ZM136.958 35.6C137.898 35.6 138.738 35.41 139.478 35.03C140.218 34.63 140.788 34.09 141.188 33.41C141.608 32.71 141.818 31.91 141.818 31.01C141.818 30.11 141.608 29.32 141.188 28.64C140.788 27.94 140.218 27.41 139.478 27.05C138.738 26.67 137.898 26.48 136.958 26.48C136.018 26.48 135.168 26.67 134.408 27.05C133.668 27.41 133.088 27.94 132.668 28.64C132.268 29.32 132.068 30.11 132.068 31.01C132.068 31.91 132.268 32.71 132.668 33.41C133.088 34.09 133.668 34.63 134.408 35.03C135.168 35.41 136.018 35.6 136.958 35.6ZM157.639 39.71C155.999 39.71 154.539 39.36 153.259 38.66C151.979 37.94 150.969 36.96 150.229 35.72C149.489 34.48 149.119 33.07 149.119 31.49C149.119 29.89 149.489 28.48 150.229 27.26C150.969 26.02 151.979 25.05 153.259 24.35C154.539 23.65 155.999 23.3 157.639 23.3C159.299 23.3 160.769 23.65 162.049 24.35C163.349 25.05 164.359 26.01 165.079 27.23C165.819 28.45 166.189 29.87 166.189 31.49C166.189 33.07 165.819 34.48 165.079 35.72C164.359 36.96 163.349 37.94 162.049 38.66C160.769 39.36 159.299 39.71 157.639 39.71ZM157.639 36.5C158.559 36.5 159.379 36.3 160.099 35.9C160.819 35.5 161.379 34.92 161.779 34.16C162.199 33.4 162.409 32.51 162.409 31.49C162.409 30.45 162.199 29.56 161.779 28.82C161.379 28.06 160.819 27.48 160.099 27.08C159.379 26.68 158.569 26.48 157.669 26.48C156.749 26.48 155.929 26.68 155.209 27.08C154.509 27.48 153.949 28.06 153.529 28.82C153.109 29.56 152.899 30.45 152.899 31.49C152.899 32.51 153.109 33.4 153.529 34.16C153.949 34.92 154.509 35.5 155.209 35.9C155.929 36.3 156.739 36.5 157.639 36.5ZM169.774 39.5V23.48H173.524V39.5H169.774ZM171.664 20.84C170.964 20.84 170.384 20.62 169.924 20.18C169.484 19.74 169.264 19.21 169.264 18.59C169.264 17.95 169.484 17.42 169.924 17C170.384 16.56 170.964 16.34 171.664 16.34C172.364 16.34 172.934 16.55 173.374 16.97C173.834 17.37 174.064 17.88 174.064 18.5C174.064 19.16 173.844 19.72 173.404 20.18C172.964 20.62 172.384 20.84 171.664 20.84ZM183.396 39.71C182.056 39.71 180.766 39.54 179.526 39.2C178.306 38.84 177.336 38.41 176.616 37.91L178.056 35.06C178.776 35.52 179.636 35.9 180.636 36.2C181.636 36.5 182.636 36.65 183.636 36.65C184.816 36.65 185.666 36.49 186.186 36.17C186.726 35.85 186.996 35.42 186.996 34.88C186.996 34.44 186.816 34.11 186.456 33.89C186.096 33.65 185.626 33.47 185.046 33.35C184.466 33.23 183.816 33.12 183.096 33.02C182.396 32.92 181.686 32.79 180.966 32.63C180.266 32.45 179.626 32.2 179.046 31.88C178.466 31.54 177.996 31.09 177.636 30.53C177.276 29.97 177.096 29.23 177.096 28.31C177.096 27.29 177.386 26.41 177.966 25.67C178.546 24.91 179.356 24.33 180.396 23.93C181.456 23.51 182.706 23.3 184.146 23.3C185.226 23.3 186.316 23.42 187.416 23.66C188.516 23.9 189.426 24.24 190.146 24.68L188.706 27.53C187.946 27.07 187.176 26.76 186.396 26.6C185.636 26.42 184.876 26.33 184.116 26.33C182.976 26.33 182.126 26.5 181.566 26.84C181.026 27.18 180.756 27.61 180.756 28.13C180.756 28.61 180.936 28.97 181.296 29.21C181.656 29.45 182.126 29.64 182.706 29.78C183.286 29.92 183.926 30.04 184.626 30.14C185.346 30.22 186.056 30.35 186.756 30.53C187.456 30.71 188.096 30.96 188.676 31.28C189.276 31.58 189.756 32.01 190.116 32.57C190.476 33.13 190.656 33.86 190.656 34.76C190.656 35.76 190.356 36.63 189.756 37.37C189.176 38.11 188.346 38.69 187.266 39.11C186.186 39.51 184.896 39.71 183.396 39.71ZM202.766 39.71C201.466 39.71 200.276 39.41 199.196 38.81C198.136 38.21 197.286 37.31 196.646 36.11C196.026 34.89 195.716 33.35 195.716 31.49C195.716 29.61 196.016 28.07 196.616 26.87C197.236 25.67 198.076 24.78 199.136 24.2C200.196 23.6 201.406 23.3 202.766 23.3C204.346 23.3 205.736 23.64 206.936 24.32C208.156 25 209.116 25.95 209.816 27.17C210.536 28.39 210.896 29.83 210.896 31.49C210.896 33.15 210.536 34.6 209.816 35.84C209.116 37.06 208.156 38.01 206.936 38.69C205.736 39.37 204.346 39.71 202.766 39.71ZM193.886 45.32V23.48H197.456V27.26L197.336 31.52L197.636 35.78V45.32H193.886ZM202.346 36.5C203.246 36.5 204.046 36.3 204.746 35.9C205.466 35.5 206.036 34.92 206.456 34.16C206.876 33.4 207.086 32.51 207.086 31.49C207.086 30.45 206.876 29.56 206.456 28.82C206.036 28.06 205.466 27.48 204.746 27.08C204.046 26.68 203.246 26.48 202.346 26.48C201.446 26.48 200.636 26.68 199.916 27.08C199.196 27.48 198.626 28.06 198.206 28.82C197.786 29.56 197.576 30.45 197.576 31.49C197.576 32.51 197.786 33.4 198.206 34.16C198.626 34.92 199.196 35.5 199.916 35.9C200.636 36.3 201.446 36.5 202.346 36.5ZM221.232 39.71C219.872 39.71 218.672 39.46 217.632 38.96C216.592 38.44 215.782 37.66 215.202 36.62C214.622 35.56 214.332 34.23 214.332 32.63V23.48H218.082V32.12C218.082 33.56 218.402 34.64 219.042 35.36C219.702 36.06 220.632 36.41 221.832 36.41C222.712 36.41 223.472 36.23 224.112 35.87C224.772 35.51 225.282 34.97 225.642 34.25C226.022 33.53 226.212 32.64 226.212 31.58V23.48H229.962V39.5H226.392V35.18L227.022 36.5C226.482 37.54 225.692 38.34 224.652 38.9C223.612 39.44 222.472 39.71 221.232 39.71ZM255.092 23.3C256.372 23.3 257.502 23.55 258.482 24.05C259.482 24.55 260.262 25.32 260.822 26.36C261.382 27.38 261.662 28.7 261.662 30.32V39.5H257.912V30.8C257.912 29.38 257.602 28.32 256.982 27.62C256.362 26.92 255.472 26.57 254.312 26.57C253.492 26.57 252.762 26.75 252.122 27.11C251.502 27.47 251.012 28 250.652 28.7C250.312 29.4 250.142 30.29 250.142 31.37V39.5H246.392V30.8C246.392 29.38 246.082 28.32 245.462 27.62C244.842 26.92 243.952 26.57 242.792 26.57C241.972 26.57 241.242 26.75 240.602 27.11C239.982 27.47 239.492 28 239.132 28.7C238.792 29.4 238.622 30.29 238.622 31.37V39.5H234.872V23.48H238.442V27.74L237.812 26.48C238.352 25.44 239.132 24.65 240.152 24.11C241.192 23.57 242.372 23.3 243.692 23.3C245.192 23.3 246.492 23.67 247.592 24.41C248.712 25.15 249.452 26.27 249.812 27.77L248.342 27.26C248.862 26.06 249.722 25.1 250.922 24.38C252.122 23.66 253.512 23.3 255.092 23.3Z" fill="#46528A"/>
</svg>
